<svg width="94" height="50" viewBox="0 0 94 50" fill="none" xmlns="http://www.w3.org/2000/svg">
<path d="M47 34.5405C46.8487 34.5414 46.6987 34.5124 46.5586 34.4551C46.4185 34.3979 46.2911 34.3136 46.1836 34.207L37.2493 25.2612C36.1286 24.1288 35.5 22.6 35.5 21.0068C35.5 19.4136 36.1286 17.8848 37.2493 16.7524C38.3788 15.6261 39.9087 14.9937 41.5037 14.9937C43.0988 14.9937 44.6287 15.6261 45.7582 16.7524L47 17.9942L48.2418 16.7524C49.3713 15.6261 50.9012 14.9937 52.4963 14.9937C54.0913 14.9937 55.6212 15.6261 56.7507 16.7524C57.8714 17.8848 58.5 19.4136 58.5 21.0068C58.5 22.6 57.8714 24.1288 56.7507 25.2612L47.8164 34.207C47.709 34.3136 47.5815 34.3979 47.4414 34.4551C47.3013 34.5124 47.1513 34.5414 47 34.5405ZM41.5037 17.2928C41.017 17.2906 40.5346 17.385 40.0846 17.5705C39.6346 17.7561 39.2259 18.029 38.8821 18.3737C38.1876 19.0718 37.7978 20.0164 37.7978 21.0011C37.7978 21.9857 38.1876 22.9304 38.8821 23.6285L47 31.7579L55.1179 23.6285C55.8124 22.9304 56.2022 21.9857 56.2022 21.0011C56.2022 20.0164 55.8124 19.0718 55.1179 18.3737C54.4092 17.7041 53.4712 17.3311 52.4963 17.3311C51.5213 17.3311 50.5833 17.7041 49.8746 18.3737L47.8164 20.4434C47.7095 20.5512 47.5823 20.6367 47.4422 20.6951C47.3021 20.7534 47.1518 20.7835 47 20.7835C46.8482 20.7835 46.6979 20.7534 46.5578 20.6951C46.4177 20.6367 46.2905 20.5512 46.1836 20.4434L44.1254 18.3737C43.7816 18.029 43.3729 17.7561 42.9229 17.5705C42.4728 17.385 41.9905 17.2906 41.5037 17.2928Z" fill="#DEDEDE"/>
</svg>
