<svg width="94" height="50" viewBox="0 0 94 50" fill="none" xmlns="http://www.w3.org/2000/svg">
<path fill-rule="evenodd" clip-rule="evenodd" d="M32.709 17.0916C33.4868 17.2831 33.9627 18.0724 33.7653 18.8501L30.2134 33C30.0508 33.6443 29.4763 34.097 28.8088 34.097C28.6927 34.097 28.5709 34.0796 28.4548 34.0505L18.9712 31.6709C18.594 31.5781 18.2747 31.3401 18.0774 31.0093C17.8801 30.6785 17.822 30.2896 17.9149 29.9124L21.4669 15.7625C21.6294 15.1182 22.204 14.6655 22.8714 14.6655C22.9875 14.6655 23.1094 14.6829 23.2255 14.712L32.709 17.0916ZM16.0251 29.7034C15.7175 30.9454 16.472 32.2049 17.714 32.5183L20.1168 33.1161L15.5608 34.7818C15.3983 34.8398 15.2299 34.8689 15.0616 34.8689C14.4522 34.8689 13.9067 34.4858 13.6977 33.917L9.28095 21.8449C9.14746 21.4793 9.15907 21.0846 9.32738 20.7364C9.49569 20.3881 9.78589 20.1212 10.1457 19.9877L18.1029 17.0741C18.2654 17.0161 18.4337 16.9871 18.602 16.9871C18.8051 16.9871 19.0025 17.0335 19.1824 17.1147L16.0251 29.7034Z" fill="#FDAAA2"/>
<path d="M50.56 29.4231H54.664V28.3611H50.56V29.4231ZM53.242 21.4311H52V19.1271H53.242V21.4311ZM55.402 25.6071C55.366 25.6251 55.294 25.6251 55.132 25.6251H54.43C54.196 25.6251 54.16 25.6071 54.16 25.3551V22.5831H55.402V25.6071ZM49.822 31.2231V26.8491C50.038 26.9571 50.308 27.2271 50.47 27.3891C51.73 26.4171 52.018 25.0491 52.018 23.9331V22.5831H53.296V25.3731C53.296 26.3091 53.53 26.5251 54.34 26.5251H55.276H55.402V31.2231H49.822ZM51.172 22.5831V23.9151C51.172 24.8331 50.974 25.9311 49.822 26.8131V22.5831H51.172ZM48.4 19.1271H50.92V21.4311H48.742V33.5991H49.822V32.3211H55.402V33.3471H56.518V21.4311H54.34V19.1271H56.878V17.9751H48.4V19.1271ZM59.902 32.2131C59.11 32.2131 58.948 32.0871 58.948 31.4391V25.1391L64.186 25.1391V18.0291L57.562 18.0291V19.3071H62.89V23.8611H57.634V31.4211C57.634 33.0411 58.138 33.4731 59.758 33.4731H62.71C64.294 33.4731 64.69 32.6451 64.852 29.7291C64.474 29.6391 63.934 29.4051 63.628 29.1711C63.538 31.7631 63.394 32.2131 62.602 32.2131H59.902ZM71.922 28.9911H74.856V27.8751H71.922V26.0391L75.234 26.0391V24.9051L73.218 24.9051C73.614 24.2571 74.028 23.4831 74.406 22.7631L73.218 22.3311C72.948 23.0871 72.426 24.1671 72.012 24.9051H67.368V26.0391H70.662V27.8751H67.818V28.9911H70.662V31.1151C69.186 31.3131 67.836 31.4751 66.756 31.6011L66.954 32.8791C69.258 32.5551 72.606 32.0871 75.738 31.6371L75.702 30.4491C74.442 30.6291 73.146 30.7911 71.922 30.9711V28.9911ZM68.322 22.7631C68.88 23.4111 69.456 24.2751 69.69 24.8691L70.68 24.3111C70.446 23.7171 69.834 22.8711 69.276 22.2771L68.322 22.7631ZM82.974 22.0251H81.246V17.2731H79.95V22.0251H75.774V21.0711L73.074 21.0711V20.3331L73.794 20.7651C74.388 20.1531 75.144 19.2351 75.792 18.4071L74.712 17.8131C74.334 18.4791 73.614 19.4871 73.074 20.1351V17.2191H71.976V21.0711H70.59V17.2191H69.51V20.0451C69.204 19.3971 68.502 18.4611 67.854 17.7951L67.008 18.3351C67.656 19.0551 68.358 20.0811 68.664 20.7291L69.51 20.1531V21.0711H66.756V22.2231L75.684 22.2231V23.2851H79.95V31.9791C79.95 32.2851 79.824 32.3751 79.518 32.3931C79.248 32.4111 78.276 32.4111 77.196 32.3751C77.394 32.7351 77.61 33.3111 77.682 33.6531C79.14 33.6531 79.986 33.6171 80.508 33.4011C81.03 33.1671 81.246 32.8071 81.246 31.9791V23.2851H82.974V22.0251ZM78.96 28.7571C78.762 27.6591 78.06 25.9851 77.304 24.6891L76.188 25.0851C76.926 26.3991 77.592 28.1091 77.772 29.2071L78.96 28.7571Z" fill="#FDAAA2"/>
</svg>
