<svg width="94" height="50" viewBox="0 0 94 50" fill="none" xmlns="http://www.w3.org/2000/svg">
<path fill-rule="evenodd" clip-rule="evenodd" d="M51.8 18.7673H55.4C57.392 18.7673 59 20.3753 59 22.3673V31.9673C59 33.9593 57.392 35.5673 55.4 35.5673H38.6C36.608 35.5673 35 33.9593 35 31.9673V22.3673C35 20.3753 36.608 18.7673 38.6 18.7673H42.2V16.9673C42.2 15.3113 43.544 13.9673 45.2 13.9673H48.8C50.456 13.9673 51.8 15.3113 51.8 16.9673V18.7673ZM45.2 16.3673C44.864 16.3673 44.6 16.6313 44.6 16.9673V18.7673L49.4 18.7673V16.9673C49.4 16.6313 49.136 16.3673 48.8 16.3673L45.2 16.3673ZM55.4 33.1673C56.06 33.1673 56.6 32.6273 56.6 31.9673V22.3673C56.6 21.7073 56.06 21.1673 55.4 21.1673L38.6 21.1673C37.94 21.1673 37.4 21.7073 37.4 22.3673V31.9673C37.4 32.6273 37.94 33.1673 38.6 33.1673H55.4ZM48.1399 25.6913H50.2879C50.6479 25.6913 50.9359 25.9793 50.9359 26.3393V27.3233C50.9359 27.6833 50.6479 27.9713 50.2879 27.9713H48.1399V30.1193C48.1399 30.4793 47.8519 30.7673 47.4919 30.7673H46.5079C46.1479 30.7673 45.8599 30.4793 45.8599 30.1193V27.9713H43.7119C43.3519 27.9713 43.0639 27.6833 43.0639 27.3233V26.3393C43.0639 25.9793 43.3519 25.6913 43.7119 25.6913H45.8599V23.5433C45.8599 23.1833 46.1479 22.8953 46.5079 22.8953H47.4919C47.8519 22.8953 48.1399 23.1833 48.1399 23.5433V25.6913Z" fill="#DEDEDE"/>
</svg>
