<svg width="94" height="50" viewBox="0 0 94 50" fill="none" xmlns="http://www.w3.org/2000/svg">
<path fill-rule="evenodd" clip-rule="evenodd" d="M36.867 24.774C36.2221 24.8133 35.5739 24.8454 34.9319 24.8385C34.6568 24.8349 34.379 24.7534 34.128 24.66C33.6586 24.4887 33.5196 24.1766 33.7134 23.7142C33.8262 23.4396 33.9867 23.1715 34.1749 22.9318C34.9033 22.0049 35.8372 21.2707 36.8016 20.5763C38.8831 19.079 41.1431 17.8869 43.5553 16.7915C46.1103 15.686 48.7851 14.696 51.6042 14.2123C52.3889 14.0781 53.1882 14.0398 53.9809 14.0017L54.0581 13.998C54.3786 13.9835 54.7093 14.0542 55.012 14.1438C55.5969 14.3151 55.7765 14.6753 55.4997 15.2153C55.2919 15.6219 55.0073 16.0051 54.7055 16.3638C54.4763 16.6367 54.2046 16.8792 53.9336 17.1211C53.8759 17.1726 53.8182 17.2241 53.761 17.2758C53.6726 17.3558 53.5422 17.4181 53.4241 17.4408C49.9364 18.0833 46.6375 19.3084 43.4424 20.8528C41.2726 21.9022 39.2269 23.1485 37.3135 24.6009C37.1922 24.6933 37.0169 24.765 36.867 24.774ZM56.1662 15.8675L56.3735 16.333C56.4658 16.5405 56.5573 16.7487 56.6488 16.957C56.871 17.4632 57.0935 17.9699 57.33 18.4671C57.4914 18.8056 57.4587 19.1257 57.2821 19.4586C56.9214 20.1364 56.3713 20.6719 55.7927 21.1817C54.4571 22.3576 52.9819 23.3542 51.4045 24.1932C51.0419 24.3867 50.6785 24.5784 50.3135 24.7666C51.3446 25.158 52.2252 25.9455 52.7096 27.0334C53.6743 29.2002 52.6998 31.739 50.5329 32.7037C48.3661 33.6684 45.8274 32.6939 44.8626 30.527C44.387 29.4588 44.3847 28.3016 44.7614 27.2855C42.8344 28.0067 40.8572 28.5622 38.8144 28.8456C38.0855 28.9458 37.3402 28.9421 36.6078 28.9242C35.9862 28.9103 35.5483 28.6372 35.326 28.0418C35.116 27.4763 34.8626 26.9281 34.6046 26.3697C34.4928 26.1277 34.3801 25.8838 34.2697 25.6357C36.3971 25.9023 38.4271 25.4174 40.4507 24.8604C42.8442 24.1986 45.1469 23.2846 47.3836 22.2032C49.8543 21.0092 52.228 19.6596 54.3258 17.8965C55.0223 17.3107 55.654 16.6704 56.1662 15.8675ZM48.7574 30.3957C48.9107 30.7399 49.3153 30.8952 49.6595 30.7419C50.0037 30.5887 50.159 30.184 50.0058 29.8398C49.8526 29.4957 49.4479 29.3403 49.1037 29.4936C48.7595 29.6468 48.6042 30.0515 48.7574 30.3957ZM48.9908 29.2447C50.1535 28.727 51.1176 27.7678 51.6083 26.4894L50.6959 26.1392C49.9074 28.1934 47.5961 29.2224 45.5419 28.4339L45.1917 29.3463C46.4701 29.837 47.828 29.7624 48.9908 29.2447Z" fill="#DEDEDE"/>
</svg>
