<svg width="94" height="50" viewBox="0 0 94 50" fill="none" xmlns="http://www.w3.org/2000/svg">
<path fill-rule="evenodd" clip-rule="evenodd" d="M55.728 16.8155C54.5758 15.6715 53.2068 14.7691 51.7011 14.1613C50.1955 13.5535 48.5836 13.2526 46.9601 13.2762C43.9124 13.2686 40.9865 14.472 38.826 16.6216C36.6656 18.7713 35.4476 21.6911 35.44 24.7388C35.4324 27.7866 36.6357 30.7125 38.7854 32.8729C40.9351 35.0333 43.8549 36.2513 46.9026 36.259C47.5594 36.2701 48.2012 36.0629 48.7274 35.6698C49.2536 35.2767 49.6344 34.72 49.8099 34.0871C49.9219 33.63 49.9207 33.1526 49.8066 32.696C49.6924 32.2395 49.4688 31.8177 49.1549 31.4671C49.0824 31.3845 49.035 31.2828 49.0185 31.1741C49.002 31.0654 49.017 30.9543 49.0618 30.8539C49.1065 30.7535 49.1792 30.668 49.271 30.6076C49.3629 30.5472 49.4702 30.5145 49.5801 30.5133H51.4762C53.2607 30.5216 54.9824 29.8545 56.2954 28.6459C57.6084 27.4374 58.4156 25.7768 58.5549 23.9977C58.5976 22.6711 58.3689 21.3498 57.8828 20.1148C57.3967 18.8798 56.6635 17.7571 55.728 16.8155ZM51.5222 28.215H49.6261C49.0723 28.2119 48.5296 28.3695 48.0637 28.6687C47.5977 28.9679 47.2286 29.3959 47.0011 29.9008C46.7737 30.4057 46.6975 30.9657 46.782 31.5129C46.8665 32.0602 47.108 32.5712 47.4772 32.9839C47.5491 33.0564 47.5999 33.1472 47.6242 33.2463C47.6485 33.3455 47.6453 33.4495 47.6151 33.547C47.5576 33.7883 47.2933 33.9377 46.9371 33.9607C45.6321 33.944 44.3455 33.6495 43.1631 33.097C41.9807 32.5445 40.9294 31.7465 40.0793 30.7562C39.2292 29.7658 38.5997 28.6058 38.2327 27.3533C37.8657 26.1008 37.7696 24.7846 37.9508 23.492C38.2785 21.3201 39.3638 19.334 41.0146 17.8851C42.6654 16.4361 44.7755 15.6177 46.9716 15.5745H47.0635C48.363 15.5575 49.6527 15.8009 50.8567 16.2903C52.0606 16.7798 53.1543 17.5054 54.0732 18.4243C54.7903 19.1418 55.3537 19.9979 55.7291 20.9403C56.1045 21.8827 56.284 22.8917 56.2566 23.9057C56.1376 25.0814 55.5885 26.1716 54.7146 26.967C53.8407 27.7624 52.7038 28.2068 51.5222 28.215ZM47.0632 20.171C48.0151 20.171 48.7869 19.3993 48.7869 18.4473C48.7869 17.4954 48.0151 16.7236 47.0632 16.7236C46.1112 16.7236 45.3395 17.4954 45.3395 18.4473C45.3395 19.3993 46.1112 20.171 47.0632 20.171ZM50.1145 19.982C50.2652 19.6763 50.5032 19.4221 50.7983 19.2516C50.9945 19.1383 51.211 19.0648 51.4356 19.0352C51.6602 19.0057 51.8884 19.0207 52.1072 19.0794C52.326 19.1381 52.531 19.2393 52.7107 19.3773C52.8903 19.5153 53.041 19.6874 53.154 19.8837C53.3242 20.179 53.403 20.5181 53.3804 20.8582C53.3579 21.1983 53.235 21.5241 53.0274 21.7944C52.8197 22.0646 52.5366 22.2673 52.2138 22.3767C51.891 22.4861 51.543 22.4974 51.2139 22.409C50.8847 22.3207 50.589 22.1368 50.3644 21.8805C50.1397 21.6242 49.996 21.3071 49.9515 20.9691C49.9071 20.6312 49.9638 20.2877 50.1145 19.982ZM43.3289 19.2517C43.0335 19.0816 42.6944 19.0028 42.3543 19.0253C42.0142 19.0478 41.6884 19.1707 41.4182 19.3784C41.1479 19.586 40.9452 19.8691 40.8358 20.1919C40.7264 20.5147 40.7152 20.8627 40.8035 21.1919C40.8918 21.5211 41.0757 21.8167 41.332 22.0414C41.5883 22.2661 41.9055 22.4097 42.2434 22.4542C42.5813 22.4987 42.9248 22.442 43.2305 22.2913C43.5362 22.1405 43.7904 21.9026 43.9609 21.6074C44.0742 21.4113 44.1477 21.1947 44.1773 20.9702C44.2068 20.7456 44.1918 20.5174 44.1331 20.2986C44.0744 20.0798 43.9732 19.8747 43.8352 19.6951C43.6972 19.5155 43.5251 19.3648 43.3289 19.2517ZM39.7218 24.6945C39.8507 24.3786 40.0704 24.1081 40.3531 23.9172C40.5399 23.7893 40.7501 23.6997 40.9717 23.6535C41.1933 23.6074 41.4219 23.6056 41.6441 23.6484C41.8664 23.6911 42.078 23.7775 42.2667 23.9026C42.4554 24.0276 42.6174 24.1888 42.7433 24.3769C42.9351 24.659 43.0388 24.9917 43.0414 25.3329C43.0439 25.674 42.9452 26.0082 42.7577 26.2932C42.5702 26.5782 42.3024 26.8011 41.9881 26.9338C41.6738 27.0665 41.3272 27.1029 40.9922 27.0385C40.6572 26.974 40.3488 26.8117 40.1062 26.5719C39.8635 26.3321 39.6975 26.0257 39.629 25.6915C39.5606 25.3573 39.5929 25.0103 39.7218 24.6945Z" fill="#DEDEDE"/>
</svg>
