<svg width="32" height="24" viewBox="0 0 32 24" fill="none" xmlns="http://www.w3.org/2000/svg">
<path fill-rule="evenodd" clip-rule="evenodd" d="M28.8464 16.5359C29.6234 17.0576 30.3227 17.6459 30.9332 18.3008C31.1996 18.5783 31.1774 19.0223 30.8888 19.2998C30.6224 19.5551 30.1673 19.5329 29.912 19.2665C29.4014 18.7115 28.8242 18.212 28.1804 17.7791C27.7475 18.4562 27.2369 19.1111 26.6376 19.7105C27.6143 20.654 28.4579 21.6752 29.1683 22.7519C29.2682 22.9072 29.3015 23.0959 29.2682 23.2735C29.2349 23.4622 29.1239 23.6176 28.9685 23.7175C28.8575 23.7841 28.7243 23.8285 28.5911 23.8285C28.358 23.8285 28.1471 23.7175 28.0139 23.5177C27.3368 22.4855 26.5266 21.5198 25.6164 20.6429C25.5634 20.6826 25.5073 20.7255 25.4486 20.7703C25.2613 20.9134 25.048 21.0764 24.8283 21.2201C22.9524 22.4522 20.6214 23.1625 17.9019 23.3179C14.6053 23.5066 10.3651 23.4511 6.97963 21.2201C6.74894 21.0733 6.53806 20.9067 6.33764 20.7483C6.3259 20.739 6.3142 20.7298 6.30253 20.7206C5.41454 21.5864 4.62645 22.5188 3.98266 23.5066C3.77176 23.8174 3.32776 23.9062 3.01696 23.7064C2.86157 23.5954 2.75057 23.44 2.71727 23.2624C2.68397 23.0848 2.71727 22.8961 2.81717 22.7408C3.49426 21.7085 4.30455 20.7206 5.24804 19.7993C4.64865 19.1999 4.11585 18.5561 3.67186 17.8679C3.08356 18.2897 2.53967 18.7559 2.07347 19.2554C1.81818 19.5218 1.37418 19.544 1.09668 19.2887C0.819184 19.0334 0.808084 18.5894 1.06338 18.3119C1.64058 17.7014 2.28437 17.1353 3.00586 16.6469C2.40647 15.3815 2.07347 14.105 2.00687 12.8285C1.90697 10.764 2.46197 8.78818 3.08356 6.7902C3.09052 6.76654 3.09818 6.74112 3.10619 6.71456C3.16203 6.5293 3.23479 6.28789 3.20566 6.19081C3.19456 6.14641 3.15016 6.05761 3.10576 5.99101C3.10576 5.97991 3.05026 5.86891 3.05026 5.86891C2.40647 4.57022 2.11787 2.51674 3.01696 1.07376C3.02238 1.06514 3.02781 1.0565 3.03325 1.04783C3.27312 0.665768 3.54011 0.240524 4.09365 0.207963H4.19355H4.24905C4.3656 0.207963 4.47938 0.205188 4.59315 0.202413C4.70692 0.199638 4.8207 0.196863 4.93725 0.196863C5.34794 0.174664 5.68094 0.174664 6.02504 0.185763C7.47912 0.230163 8.91101 0.640859 10.1653 1.37345C11.9191 0.57426 13.906 0.230163 15.915 0.363362C17.9019 0.230163 19.8888 0.57426 21.6426 1.37345C22.8969 0.640859 24.3288 0.230163 25.7829 0.185763C26.0581 0.169081 26.3334 0.171203 26.6039 0.173288C26.6934 0.173978 26.7824 0.174664 26.8706 0.174664C27.1481 0.185763 27.4256 0.185763 27.692 0.185763C28.4246 0.185763 28.8242 1.04046 28.9574 1.32905C29.246 1.95065 29.3126 2.63884 29.3459 3.10504C29.3903 4.00413 29.1461 4.73672 28.8797 5.51371L28.7687 5.83561C28.7687 5.84861 28.7459 5.88828 28.7269 5.92114C28.7136 5.94438 28.7021 5.96421 28.7021 5.96881C28.6577 6.04651 28.6133 6.14641 28.6022 6.17971C28.58 6.30181 28.6688 6.6015 28.7243 6.7791C29.3459 8.78818 29.9009 10.7529 29.801 12.8174C29.7344 14.0606 29.4125 15.3149 28.8464 16.5359ZM23.7183 15.326C23.7849 14.9375 24.1512 14.7044 24.5286 14.771C25.4166 14.9375 26.3046 15.215 27.1481 15.6035C27.5699 14.6489 27.8141 13.6832 27.8585 12.7286C27.9473 10.986 27.4367 9.19888 26.8706 7.3674C26.7374 6.9456 26.5599 6.35731 26.7264 5.70241C26.7929 5.44711 26.9039 5.22512 26.9927 5.06972C27.4478 4.14843 27.5144 3.06064 27.1592 2.13935H27.0593H26.8041H26.7264C26.4378 2.12825 26.1492 2.11715 25.8495 2.12825C24.5841 2.17264 23.2965 2.58334 22.242 3.28263C21.9534 3.48243 21.5649 3.50463 21.2541 3.33813C20.133 2.76094 18.912 2.41684 17.6022 2.32804C16.2147 2.22814 14.8606 2.16154 13.5175 2.37244C12.4519 2.55004 11.4529 2.87194 10.5538 3.33813C10.243 3.49353 9.8545 3.48243 9.56591 3.28263C8.51141 2.58334 7.23493 2.17264 5.95844 2.12825C5.65874 2.11715 5.34794 2.11715 5.04825 2.13935H5.00385H4.74855H4.64865C4.30455 3.04954 4.34895 4.13733 4.78185 4.99202C4.90395 5.22512 5.01495 5.44711 5.08155 5.70241C5.25428 6.33935 5.08052 6.9028 4.94832 7.33147C4.94459 7.34355 4.9409 7.35553 4.93725 7.3674C4.37115 9.19888 3.87166 10.986 3.94936 12.7397C3.99376 13.7276 4.24905 14.7155 4.69305 15.6923C5.59214 15.2705 6.52453 14.9597 7.46802 14.7821C7.84542 14.7155 8.20062 14.9597 8.27832 15.3371C8.34492 15.7145 8.10072 16.0697 7.72332 16.1474C6.92413 16.3028 6.13604 16.5581 5.35904 16.9133C5.74754 17.4905 6.20264 18.0344 6.72433 18.5339C7.55682 17.8679 8.27832 17.3795 8.98871 16.9688C9.14411 16.88 9.33281 16.8578 9.51041 16.9022C9.688 16.9577 9.8434 17.0687 9.9322 17.2352C10.021 17.3906 10.0432 17.5793 9.9988 17.7569C9.9544 17.9345 9.8434 18.0899 9.6769 18.1787C9.08861 18.5117 8.50031 18.9113 7.82322 19.433L8.05632 19.5995C9.22181 20.3654 10.6204 20.8871 12.3187 21.1757C15.5932 21.7418 20.2329 21.9305 23.7738 19.5995C23.8293 19.5606 23.882 19.519 23.9347 19.4774C23.9875 19.4358 24.0402 19.3941 24.0957 19.3553C23.4741 18.8891 22.8969 18.5006 22.3308 18.1787C22.1754 18.0788 22.0533 17.9345 22.0089 17.7569C21.9645 17.5793 21.9867 17.3906 22.0755 17.2352C22.1643 17.0687 22.3197 16.9466 22.4973 16.9022C22.6749 16.8578 22.8636 16.88 23.019 16.9688C23.6961 17.3573 24.3843 17.8346 25.1724 18.4451C25.683 17.9456 26.127 17.4017 26.4933 16.8356C25.7718 16.5137 25.0281 16.2806 24.2733 16.1363C23.8959 16.0697 23.6517 15.7034 23.7183 15.326ZM5.63655 2.70544C6.20264 2.78314 6.74653 2.97184 7.23493 3.24934C7.37923 3.33814 7.47913 3.47133 7.49023 3.63783C7.52353 3.80433 7.47913 3.97083 7.36813 4.09293L6.52454 5.09192C6.42464 5.22512 6.26924 5.29172 6.10274 5.29172C5.96954 5.29172 5.84744 5.24732 5.74754 5.15852C5.63655 5.05862 5.56995 4.92542 5.54775 4.78112C5.53665 4.63682 5.58105 4.49252 5.68095 4.37043L6.05834 3.92643C5.88074 3.87093 5.69204 3.82653 5.50335 3.80433C5.19255 3.77103 4.98165 3.48243 5.02605 3.18274C5.05935 2.88304 5.33685 2.67214 5.63655 2.70544ZM21.0874 13.3613C20.5657 12.6065 20.5435 11.7074 21.0541 11.3523C21.5647 11.0082 22.3971 11.3301 22.9299 12.0737C23.4516 12.8285 23.4738 13.7276 22.9632 14.0828C22.4526 14.438 21.6202 14.1161 21.0874 13.3613ZM8.85552 14.094C8.34492 13.7388 8.35602 12.8397 8.88882 12.0849C9.41051 11.3301 10.2541 11.0082 10.7647 11.3634C11.2753 11.7186 11.2642 12.6177 10.7314 13.3725C10.1986 14.1273 9.36611 14.4492 8.85552 14.094ZM19.3114 15.4703C19.0117 15.4148 18.7231 15.5924 18.6676 15.8588C18.601 16.1696 18.3235 16.3028 18.1681 16.3472C17.8351 16.4471 17.4466 16.3916 17.2024 16.2029C16.9249 15.992 16.8028 15.5702 16.825 14.993C17.2579 14.7932 17.5576 14.4602 17.5576 14.0606C17.5576 13.4502 16.8916 12.9507 16.0813 12.9507C15.271 12.9507 14.605 13.4502 14.605 14.0606C14.605 14.4602 14.9047 14.8043 15.3376 14.993C15.3598 15.5813 15.2377 15.992 14.9491 16.2029C14.7049 16.3916 14.3164 16.4471 13.9834 16.3472C13.828 16.3028 13.5505 16.1696 13.4839 15.8588C13.4284 15.5924 13.1287 15.4148 12.8401 15.4703C12.5404 15.5258 12.3406 15.7811 12.3961 16.0475C12.5182 16.6358 12.9622 17.0798 13.6171 17.2907C13.8391 17.3573 14.0833 17.4017 14.3164 17.4017C14.8048 17.4017 15.2932 17.2574 15.6706 16.9688C15.8371 16.8467 15.9703 16.6913 16.0813 16.5248C16.1923 16.6913 16.3255 16.8467 16.492 16.9688C16.8583 17.2463 17.3467 17.4017 17.8462 17.4017C18.0793 17.4017 18.3235 17.3684 18.5455 17.2907C19.2004 17.0909 19.6444 16.6358 19.7665 16.0475C19.8109 15.7811 19.6111 15.5258 19.3114 15.4703ZM26.7927 3.18274C26.7483 2.88304 26.4708 2.67214 26.1711 2.70544C25.6161 2.78314 25.0611 2.97184 24.5838 3.24934C24.4395 3.33814 24.3396 3.47133 24.3174 3.63783C24.2841 3.80433 24.3285 3.97083 24.4395 4.09293L25.2831 5.09192C25.3941 5.21402 25.5384 5.29172 25.7049 5.29172C25.8381 5.29172 25.9602 5.24732 26.0601 5.15852C26.1711 5.05862 26.2377 4.92542 26.2599 4.78112C26.271 4.63682 26.2266 4.49252 26.1267 4.37043L25.7493 3.92643C25.938 3.87093 26.1156 3.82653 26.3043 3.80433C26.6151 3.77103 26.826 3.48243 26.7927 3.18274Z" fill="#262626"/>
</svg>
