<svg width="28" height="28" viewBox="0 0 28 28" fill="none" xmlns="http://www.w3.org/2000/svg">
<path d="M8.48026 12.1306C7.91955 12.9249 7.90787 13.8711 8.44521 14.2449C8.98256 14.6187 9.85866 14.28 10.4194 13.4856C10.9801 12.6913 10.9918 11.7451 10.4544 11.3713C9.91707 10.9975 9.02928 11.3363 8.48026 12.1306Z" fill="white"/>
<path d="M19.753 12.1306C19.1923 11.3363 18.3162 10.9975 17.7788 11.3713C17.2415 11.7451 17.2649 12.6913 17.8139 13.4856C18.3746 14.28 19.2507 14.6187 19.788 14.2449C20.3254 13.8711 20.302 12.9249 19.753 12.1306Z" fill="white"/>
<path d="M27.3462 19.5367L27.1009 18.4036C26.7855 16.9552 26.4701 15.4716 26.3299 13.9998C26.2949 13.5909 26.2715 13.1821 26.2599 12.7732C26.2482 12.4695 26.2365 12.1658 26.2248 11.8504V11.6752C26.1664 9.51412 26.108 7.28298 25.1384 5.23874C23.9236 2.6922 21.1201 1.29043 18.5969 1.96795C17.3236 0.951672 15.8751 0.355922 14.4266 0.25079C14.3682 0.227427 14.2864 0.192383 14.193 0.192383C14.1229 0.192383 14.0995 0.192383 14.0528 0.204064L13.936 0.204064C13.901 0.192383 13.8542 0.192383 13.8075 0.192383C13.7374 0.192383 13.6673 0.215746 13.6673 0.227427C12.1604 0.320878 10.6886 0.928309 9.40363 1.96795C6.88045 1.29043 4.07692 2.6922 2.86206 5.23874C1.89251 7.28298 1.8341 9.51412 1.77569 11.6752V11.8504C1.76401 12.1658 1.76401 12.4695 1.74065 12.7732C1.72897 13.1821 1.7056 13.5909 1.67056 13.9998C1.54206 15.4716 1.21499 16.9668 0.899589 18.4153L0.65428 19.5367C0.327201 20.9969 -0.0466031 22.6557 0.163662 24.256C0.479059 26.5222 2.19622 27.7137 5.28011 27.8071H5.45533C8.02523 27.8071 9.47372 25.9732 10.4433 24.3027C11.2142 24.4429 11.9969 24.513 12.8263 24.513H13.6089C14.8939 24.5247 16.2372 24.5364 17.5456 24.3027C18.5151 25.9732 19.9636 27.8071 22.5335 27.8071C22.5919 27.8071 22.6503 27.8071 22.7087 27.8071C25.7926 27.7137 27.5098 26.5105 27.8252 24.256C28.0588 22.6557 27.6733 20.9969 27.3462 19.5367ZM5.33851 26.0549C3.11905 25.9849 2.09109 25.3774 1.90419 24.0107C1.72897 22.7374 2.05604 21.3006 2.35976 19.9105L2.60507 18.7774C2.93215 17.2822 3.27091 15.7286 3.41108 14.1399C3.44613 13.7077 3.46949 13.2638 3.49285 12.8199C3.50454 12.4461 3.51622 12.0723 3.5279 11.6985C3.57462 9.72438 3.63303 7.68014 4.45073 5.97466C5.10488 4.59626 6.44824 3.66175 7.83833 3.54494C7.68647 3.7552 7.54629 3.9421 7.42948 4.11732C5.89922 6.44192 5.37356 9.19872 5.08152 11.3598C5.0348 11.6752 4.99975 11.9906 4.96471 12.306L4.94135 12.4812C4.84789 13.2405 4.75444 14.0114 4.61427 14.7707L4.48577 15.4366C4.22878 16.7332 3.93675 18.1934 4.404 19.6536C4.87126 21.1371 6.05108 22.4804 7.62806 23.3449C7.94346 23.5201 8.28222 23.6719 8.70275 23.8238C7.67479 25.4475 6.69355 26.09 5.33851 26.0549ZM14.9406 22.8192V19.9339C16.0854 19.6419 16.9264 18.8359 16.9264 17.8663C16.9264 16.6514 15.6181 15.6702 14.0061 15.6702C12.3941 15.6702 11.0857 16.6514 11.0857 17.8663C11.0857 18.941 12.1254 19.8288 13.4804 20.0157V22.7842C11.7516 22.7258 9.97602 22.6323 8.46912 21.8029C7.30098 21.1604 6.40152 20.1558 6.07444 19.1162C5.74736 18.0882 5.98099 16.9084 6.21462 15.7169C6.26134 15.5067 6.29639 15.2964 6.33143 15.0861C6.47161 14.3152 6.56506 13.5208 6.67019 12.6915L6.69355 12.5045C6.7286 12.2008 6.76364 11.8854 6.81037 11.5817C7.07904 9.61925 7.55797 7.09607 8.88965 5.0752C10.1512 3.15945 12.102 1.96795 13.9944 1.94459C15.8868 1.96795 17.8493 3.17113 19.1109 5.0752C20.4425 7.09607 20.9215 9.61925 21.1901 11.5817C21.2369 11.8854 21.2719 12.2008 21.307 12.5045L21.342 12.7499C21.4355 13.5091 21.5406 14.3035 21.6691 15.0861C21.7041 15.2964 21.7508 15.5067 21.7976 15.7753C22.0195 16.9201 22.2531 18.0999 21.9261 19.1162C21.599 20.1558 20.6995 21.1604 19.5314 21.8029C18.0595 22.6206 16.3891 22.7958 14.9406 22.8192ZM26.0963 24.0107C25.9094 25.3774 24.8815 25.9849 22.662 26.0549C21.3654 26.1017 20.3257 25.4125 19.3094 23.8238C19.7183 23.6719 20.0687 23.5201 20.3841 23.3449C21.9611 22.4804 23.1409 21.1371 23.6082 19.6536C24.0638 18.2051 23.7834 16.7332 23.5264 15.4366L23.3979 14.7824C23.2577 14.0231 23.1643 13.2405 23.0708 12.4812L23.0475 12.306C23.0124 11.9906 22.9657 11.6752 22.9307 11.3598C22.6386 9.2104 22.113 6.44192 20.5827 4.12901C20.4659 3.9421 20.3257 3.76688 20.1855 3.57998C21.5756 3.69679 22.9073 4.6313 23.5615 6.00971C24.3792 7.71519 24.4259 9.75943 24.4843 11.7336C24.496 12.1074 24.5077 12.4812 24.5193 12.855C24.5427 13.2989 24.5544 13.7311 24.6011 14.1633C24.7413 15.752 25.08 17.3056 25.4071 18.8008L25.6524 19.9339C25.9561 21.3123 26.2715 22.7374 26.0963 24.0107Z" fill="white"/>
</svg>
