<svg width="16" height="16" viewBox="0 0 16 16" fill="none" xmlns="http://www.w3.org/2000/svg">
<path fill-rule="evenodd" clip-rule="evenodd" d="M15.5793 10.7935C15.68 10.8845 15.756 10.9996 15.8 11.128C15.8675 11.3179 15.9184 11.5133 15.952 11.712C15.9842 11.9131 16.0002 12.1164 16 12.32C16 12.8033 15.9048 13.2818 15.7199 13.7283C15.5349 14.1747 15.2639 14.5804 14.9221 14.9221C14.5804 15.2639 14.1747 15.5349 13.7283 15.7199C13.2818 15.9048 12.8033 16 12.32 16C9.05383 15.9958 5.92265 14.6964 3.61312 12.3869C1.30359 10.0773 0.00423353 6.94617 0 3.68C0 2.704 0.387713 1.76798 1.07785 1.07785C1.76798 0.387713 2.704 0 3.68 0C3.88747 0.00631947 4.0938 0.0331162 4.296 0.0799999C4.49225 0.10904 4.68517 0.157272 4.872 0.224C5.00043 0.268002 5.11554 0.343962 5.20651 0.444729C5.29748 0.545497 5.36132 0.667757 5.392 0.8L6.488 5.544C6.51754 5.67429 6.51398 5.8099 6.47765 5.93847C6.44132 6.06703 6.37337 6.18444 6.28 6.28C6.18185 6.39325 6.1692 6.39962 5.31407 6.83035C5.26311 6.85602 5.20915 6.8832 5.152 6.912C5.93999 8.64068 7.32256 10.0289 9.048 10.824C9.568 9.832 9.576 9.824 9.688 9.72C9.78355 9.62663 9.90097 9.55868 10.0295 9.52235C10.1581 9.48601 10.2937 9.48246 10.424 9.512L15.224 10.608C15.3562 10.6387 15.4785 10.7025 15.5793 10.7935ZM4.74215 11.2578C6.75208 13.2678 9.47753 14.3979 12.32 14.4C12.871 14.3979 13.3988 14.1781 13.7885 13.7885C14.1781 13.3988 14.3979 12.871 14.4 12.32V12.056L10.696 11.208L10.464 11.648C10.104 12.344 9.84 12.848 9.168 12.576C7.8423 12.1015 6.63896 11.3376 5.64539 10.3399C4.65182 9.34218 3.89298 8.13566 3.424 6.808C3.136 6.184 3.68 5.896 4.368 5.536L4.8 5.312L3.944 1.6H3.68C3.129 1.60211 2.60117 1.82193 2.21155 2.21155C1.82193 2.60117 1.60211 3.129 1.6 3.68C1.60212 6.52247 2.73222 9.24791 4.74215 11.2578ZM8.8 1.6C10.2852 1.6 11.7096 2.19 12.7598 3.2402C13.81 4.2904 14.4 5.71479 14.4 7.2C14.4 7.41217 14.4843 7.61565 14.6343 7.76568C14.7843 7.91571 14.9878 8 15.2 8C15.4122 8 15.6157 7.91571 15.7657 7.76568C15.9157 7.61565 16 7.41217 16 7.2C16 5.29044 15.2414 3.45909 13.8912 2.10883C12.5409 0.758569 10.7096 0 8.8 0C8.58783 0 8.38434 0.0842854 8.23431 0.234314C8.08429 0.384344 8 0.587827 8 0.8C8 1.01217 8.08429 1.21566 8.23431 1.36569C8.38434 1.51571 8.58783 1.6 8.8 1.6ZM8.8 4.80019C9.43652 4.80019 10.047 5.05305 10.4971 5.50314C10.9471 5.95323 11.2 6.56367 11.2 7.20019C11.2 7.41237 11.2843 7.61585 11.4343 7.76588C11.5843 7.91591 11.7878 8.00019 12 8.00019C12.2122 8.00019 12.4157 7.91591 12.5657 7.76588C12.7157 7.61585 12.8 7.41237 12.8 7.20019C12.8 6.13933 12.3786 5.12191 11.6284 4.37177C10.8783 3.62162 9.86087 3.2002 8.8 3.2002C8.58783 3.2002 8.38434 3.28448 8.23431 3.43451C8.08429 3.58454 8 3.78802 8 4.0002C8 4.21237 8.08429 4.41585 8.23431 4.56588C8.38434 4.71591 8.58783 4.80019 8.8 4.80019Z" fill="white"/>
</svg>
