<svg width="25" height="24" viewBox="0 0 25 24" fill="none" xmlns="http://www.w3.org/2000/svg">
<path fill-rule="evenodd" clip-rule="evenodd" d="M21.2285 4.04845C20.0763 2.90439 18.7072 2.002 17.2016 1.39421C15.696 0.786432 14.0841 0.485507 12.4606 0.5091C9.41287 0.501481 6.48697 1.70487 4.32653 3.85453C2.16609 6.0042 0.948085 8.92405 0.940466 11.9718C0.932846 15.0195 2.13623 17.9454 4.2859 20.1058C6.43556 22.2663 9.35541 23.4843 12.4031 23.4919C13.0598 23.503 13.7017 23.2958 14.2279 22.9027C14.7541 22.5096 15.1349 21.9529 15.3104 21.32C15.4224 20.8629 15.4212 20.3855 15.3071 19.929C15.1929 19.4724 14.9693 19.0506 14.6554 18.7C14.5829 18.6174 14.5355 18.5157 14.519 18.407C14.5025 18.2983 14.5175 18.1872 14.5623 18.0868C14.607 17.9864 14.6797 17.9009 14.7715 17.8405C14.8634 17.7802 14.9707 17.7474 15.0806 17.7462H16.9767C18.7612 17.7545 20.4829 17.0874 21.7959 15.8789C23.1089 14.6703 23.9161 13.0097 24.0554 11.2306C24.0981 9.90401 23.8694 8.58271 23.3833 7.34769C22.8972 6.11267 22.164 4.98997 21.2285 4.04845ZM17.0227 15.4479H15.1266C14.5728 15.4448 14.0301 15.6024 13.5642 15.9016C13.0982 16.2008 12.7291 16.6288 12.5016 17.1337C12.2741 17.6386 12.198 18.1986 12.2825 18.7459C12.367 19.2931 12.6085 19.8041 12.9777 20.2168C13.0496 20.2894 13.1004 20.3801 13.1247 20.4793C13.149 20.5784 13.1458 20.6824 13.1156 20.7799C13.0581 21.0212 12.7938 21.1706 12.4376 21.1936C11.1325 21.1769 9.84601 20.8824 8.66358 20.3299C7.48114 19.7774 6.42991 18.9794 5.57981 17.9891C4.72971 16.9987 4.10022 15.8387 3.73323 14.5862C3.36623 13.3337 3.27013 12.0175 3.45133 10.7249C3.77903 8.55301 4.86426 6.56694 6.51509 5.11799C8.16592 3.66904 10.276 2.85059 12.4721 2.80738H12.564C13.8635 2.79036 15.1532 3.03377 16.3572 3.52323C17.5611 4.01269 18.6548 4.73829 19.5737 5.65724C20.2908 6.37476 20.8542 7.23082 21.2296 8.17322C21.605 9.11561 21.7845 10.1246 21.7571 11.1386C21.6381 12.3143 21.0889 13.4045 20.2151 14.1999C19.3412 14.9953 18.2043 15.4397 17.0227 15.4479ZM12.5637 7.40395C13.5156 7.40395 14.2874 6.63222 14.2874 5.68024C14.2874 4.72826 13.5156 3.95653 12.5637 3.95653C11.6117 3.95653 10.84 4.72826 10.84 5.68024C10.84 6.63222 11.6117 7.40395 12.5637 7.40395ZM15.615 7.2149C15.7657 6.9092 16.0037 6.65504 16.2988 6.48456C16.4949 6.37125 16.7115 6.29771 16.9361 6.26816C17.1607 6.2386 17.3889 6.2536 17.6077 6.3123C17.8264 6.371 18.0315 6.47224 18.2111 6.61025C18.3908 6.74825 18.5414 6.92031 18.6545 7.11658C18.8247 7.4119 18.9035 7.75104 18.8809 8.09113C18.8584 8.43122 18.7355 8.75699 18.5279 9.02727C18.3202 9.29755 18.0371 9.5002 17.7143 9.60961C17.3915 9.71902 17.0435 9.73028 16.7143 9.64196C16.3851 9.55364 16.0895 9.3697 15.8648 9.11341C15.6402 8.85712 15.4965 8.53996 15.452 8.20204C15.4076 7.86412 15.4643 7.5206 15.615 7.2149ZM8.82935 6.48462C8.53402 6.31446 8.19489 6.23567 7.8548 6.25822C7.51471 6.28076 7.18894 6.40362 6.91866 6.61127C6.64838 6.81892 6.44573 7.10203 6.33632 7.42483C6.22691 7.74763 6.21565 8.09562 6.30397 8.42481C6.39229 8.754 6.57622 9.04962 6.83252 9.27431C7.08881 9.49899 7.40596 9.64264 7.74388 9.68712C8.08181 9.73159 8.42533 9.67489 8.73103 9.52417C9.03673 9.37345 9.29088 9.13548 9.46137 8.84035C9.57468 8.64421 9.64821 8.42765 9.67777 8.20306C9.70733 7.97848 9.69233 7.75027 9.63363 7.53149C9.57493 7.3127 9.47369 7.10763 9.33568 6.928C9.19767 6.74838 9.02562 6.59771 8.82935 6.48462ZM5.22228 11.9274C5.35118 11.6115 5.5709 11.341 5.85362 11.1501C6.04036 11.0222 6.25061 10.9326 6.47221 10.8864C6.6938 10.8403 6.92235 10.8385 7.14463 10.8813C7.3669 10.924 7.5785 11.0104 7.76717 11.1355C7.95585 11.2605 8.11786 11.4217 8.24383 11.6098C8.43558 11.8919 8.53931 12.2246 8.54186 12.5658C8.54442 12.9069 8.4457 13.2411 8.25819 13.5261C8.07069 13.8111 7.80284 14.034 7.48855 14.1667C7.17427 14.2994 6.82769 14.3358 6.49269 14.2714C6.15769 14.2069 5.84934 14.0446 5.60667 13.8048C5.36401 13.565 5.19796 13.2586 5.12953 12.9244C5.0611 12.5902 5.09338 12.2432 5.22228 11.9274Z" fill="#FDAAA2"/>
</svg>
