<svg width="16" height="23" viewBox="0 0 16 23" fill="none" xmlns="http://www.w3.org/2000/svg">
<path d="M15.8248 8.59548C15.8248 4.25743 12.3124 0.745117 7.97439 0.745117C3.63633 0.745117 0.124023 4.25743 0.124023 8.59548C0.124023 12.6602 3.21765 16.0039 7.17772 16.4051V18.3706H5.52624C5.25293 18.3706 5.03195 18.5916 5.03195 18.8649V19.6209C5.03195 19.8942 5.25293 20.1152 5.52624 20.1152H7.17772V21.7143C7.17772 22.0167 7.39869 22.2551 7.672 22.2551H8.42796C8.70127 22.2551 8.92225 22.0109 8.92225 21.7143V20.1152H10.5737C10.847 20.1152 11.068 19.8942 11.068 19.6209V18.8649C11.068 18.5916 10.847 18.3706 10.5737 18.3706H8.92225L8.92225 16.3819C12.8067 15.9167 15.8248 12.6079 15.8248 8.59548ZM2.45006 8.59548C2.45006 5.54838 4.92728 3.07115 7.97439 3.07115C11.0215 3.07115 13.4987 5.54838 13.4987 8.59548C13.4987 11.6426 11.0215 14.1198 7.97439 14.1198C4.92728 14.1198 2.45006 11.6426 2.45006 8.59548Z" fill="#FDAAA2"/>
</svg>
