<svg width="18" height="18" viewBox="0 0 18 18" fill="none" xmlns="http://www.w3.org/2000/svg">
<path d="M14.0545 5.18112L15.8585 3.37704L15.9121 4.69097C15.9203 4.91339 16.1057 5.08226 16.3281 5.07402L17.4649 5.0246C17.6873 5.01636 17.8562 4.83101 17.848 4.60859L17.6791 0.53501C17.6708 0.31259 17.4855 0.143715 17.2631 0.151953L13.1895 0.320828C12.9671 0.329065 12.7982 0.514415 12.8064 0.736835L12.8559 1.87365C12.8641 2.09607 13.0494 2.26494 13.2719 2.25671L14.5611 2.20316L12.8188 3.94545C9.73374 1.47 5.21532 1.66358 2.35269 4.52621C-0.719997 7.5989 -0.719997 12.5745 2.35269 15.6472C5.42538 18.7199 10.4051 18.7158 13.4737 15.6472C16.3363 12.7846 16.5299 8.26616 14.0545 5.18112ZM4.00025 13.9997C1.84195 11.8414 1.84195 8.33206 4.00025 6.17377C6.15855 4.01547 9.66784 4.01547 11.8261 6.17377C13.9844 8.33207 13.9844 11.8414 11.8261 13.9997C9.66784 16.158 6.15855 16.158 4.00025 13.9997Z" fill="#70D4F4"/>
</svg>
