<svg width="17" height="19" viewBox="0 0 17 19" fill="none" xmlns="http://www.w3.org/2000/svg">
<path fill-rule="evenodd" clip-rule="evenodd" d="M14.1338 1.98786V2.92686C14.8809 2.92686 15.5975 3.22365 16.1257 3.75194C16.654 4.28023 16.9508 4.99675 16.9508 5.74386V16.0729C16.9508 16.82 16.654 17.5365 16.1257 18.0648C15.5975 18.5931 14.8809 18.8899 14.1338 18.8899H2.86583C2.11871 18.8899 1.4022 18.5931 0.873908 18.0648C0.345618 17.5365 0.0488281 16.82 0.0488281 16.0729V5.74386C0.0488281 4.99675 0.345618 4.28023 0.873908 3.75194C1.4022 3.22365 2.11871 2.92686 2.86583 2.92686V1.98786C2.86583 1.48979 3.06369 1.01211 3.41588 0.659917C3.76807 0.307723 4.24575 0.109863 4.74383 0.109863H12.2558C12.7539 0.109863 13.2316 0.307723 13.5838 0.659917C13.936 1.01211 14.1338 1.48979 14.1338 1.98786ZM12.2558 1.98786H4.74383V5.74386H12.2558V1.98786ZM14.7978 16.7368C14.9739 16.5607 15.0728 16.3219 15.0728 16.0729V5.74386C15.0728 5.49482 14.9739 5.25599 14.7978 5.07989C14.6217 4.90379 14.3829 4.80486 14.1338 4.80486V5.74386C14.1338 6.24194 13.936 6.71962 13.5838 7.07181C13.2316 7.424 12.7539 7.62186 12.2558 7.62186H4.74383C4.24575 7.62186 3.76807 7.424 3.41588 7.07181C3.06369 6.71962 2.86583 6.24194 2.86583 5.74386V4.80486C2.61679 4.80486 2.37795 4.90379 2.20185 5.07989C2.02576 5.25599 1.92683 5.49482 1.92683 5.74386V16.0729C1.92683 16.3219 2.02576 16.5607 2.20185 16.7368C2.37795 16.9129 2.61679 17.0119 2.86583 17.0119H14.1338C14.3829 17.0119 14.6217 16.9129 14.7978 16.7368ZM8.9772 11.1445C8.9772 11.5341 8.66131 11.85 8.27164 11.85C7.88198 11.85 7.56609 11.5341 7.56609 11.1445C7.56609 10.7548 7.88198 10.4389 8.27164 10.4389C8.66131 10.4389 8.9772 10.7548 8.9772 11.1445ZM11.0939 11.85C11.4836 11.85 11.7994 11.5341 11.7994 11.1445C11.7994 10.7548 11.4836 10.4389 11.0939 10.4389C10.7042 10.4389 10.3883 10.7548 10.3883 11.1445C10.3883 11.5341 10.7042 11.85 11.0939 11.85ZM6.15496 11.1445C6.15496 11.5341 5.83907 11.85 5.4494 11.85C5.05973 11.85 4.74384 11.5341 4.74384 11.1445C4.74384 10.7548 5.05973 10.4389 5.4494 10.4389C5.83907 10.4389 6.15496 10.7548 6.15496 11.1445Z" fill="#FDAAA2"/>
</svg>
