<svg width="16" height="16" viewBox="0 0 16 16" fill="none" xmlns="http://www.w3.org/2000/svg">
<path d="M9.6447 7.9991L14.6601 2.99536C14.8797 2.77573 15.0031 2.47785 15.0031 2.16724C15.0031 1.85663 14.8797 1.55875 14.6601 1.33911C14.4405 1.11948 14.1426 0.996094 13.832 0.996094C13.5214 0.996094 13.2235 1.11948 13.0039 1.33911L8.00012 6.35452L2.99638 1.33911C2.77675 1.11948 2.47886 0.996094 2.16825 0.996094C1.85765 0.996094 1.55976 1.11948 1.34013 1.33911C1.1205 1.55875 0.997108 1.85663 0.997108 2.16724C0.997108 2.47785 1.1205 2.77573 1.34013 2.99536L6.35553 7.9991L1.34013 13.0028C1.23081 13.1113 1.14403 13.2403 1.08482 13.3824C1.0256 13.5245 0.995117 13.677 0.995117 13.831C0.995117 13.9849 1.0256 14.1374 1.08482 14.2795C1.14403 14.4217 1.23081 14.5507 1.34013 14.6591C1.44856 14.7684 1.57756 14.8552 1.71969 14.9144C1.86183 14.9736 2.01428 15.0041 2.16825 15.0041C2.32223 15.0041 2.47468 14.9736 2.61681 14.9144C2.75895 14.8552 2.88795 14.7684 2.99638 14.6591L8.00012 9.64369L13.0039 14.6591C13.1123 14.7684 13.2413 14.8552 13.3834 14.9144C13.5256 14.9736 13.678 15.0041 13.832 15.0041C13.986 15.0041 14.1384 14.9736 14.2805 14.9144C14.4227 14.8552 14.5517 14.7684 14.6601 14.6591C14.7694 14.5507 14.8562 14.4217 14.9154 14.2795C14.9746 14.1374 15.0051 13.9849 15.0051 13.831C15.0051 13.677 14.9746 13.5245 14.9154 13.3824C14.8562 13.2403 14.7694 13.1113 14.6601 13.0028L9.6447 7.9991Z" fill="white"/>
</svg>
