<svg width="22" height="20" viewBox="0 0 22 20" fill="none" xmlns="http://www.w3.org/2000/svg">
<path d="M11 19.3483C10.8553 19.3492 10.7118 19.3214 10.5778 19.2667C10.4438 19.212 10.3219 19.1313 10.2191 19.0294L1.67325 10.4725C0.601288 9.38937 0 7.927 0 6.40308C0 4.87916 0.601288 3.41678 1.67325 2.33362C2.75359 1.25633 4.21702 0.651367 5.7427 0.651367C7.26838 0.651367 8.73182 1.25633 9.81216 2.33362L11 3.52146L12.1878 2.33362C13.2682 1.25633 14.7316 0.651367 16.2573 0.651367C17.783 0.651367 19.2464 1.25633 20.3268 2.33362C21.3987 3.41678 22 4.87916 22 6.40308C22 7.927 21.3987 9.38937 20.3268 10.4725L11.7809 19.0294C11.6781 19.1313 11.5562 19.212 11.4222 19.2667C11.2882 19.3214 11.1447 19.3492 11 19.3483Z" fill="#FDAAA2"/>
</svg>
